<svg width="24" height="24" viewBox="0 0 24 24" fill="none" xmlns="http://www.w3.org/2000/svg">
<g clip-path="url(#clip0_443_45)">
<path d="M20.4 0H3.6C1.61177 0 0 1.61177 0 3.6V20.4C0 22.3882 1.61177 24 3.6 24H20.4C22.3882 24 24 22.3882 24 20.4V3.6C24 1.61177 22.3882 0 20.4 0Z" fill="white"/>
<mask id="mask0_443_45" style="mask-type:luminance" maskUnits="userSpaceOnUse" x="5" y="3" width="14" height="18">
<path d="M17.5782 6.37509C17.1975 5.63922 16.6739 4.98661 16.0381 4.45541C15.4023 3.92421 14.6669 3.52508 13.8751 3.28134C13.2676 3.09465 12.6356 2.99985 12.0001 3.00009C11.0791 2.99521 10.1684 3.19445 9.33362 3.58349C8.4988 3.97253 7.76055 4.5417 7.17195 5.25009C6.22647 6.37993 5.71167 7.8081 5.71882 9.28134C5.71882 11.0626 6.3282 12.2813 6.3282 12.2813C7.03132 13.7813 8.29695 15.1407 9.18757 16.3126C9.70349 16.9831 10.1733 17.6878 10.5938 18.422C10.9259 19.0493 11.1929 19.709 11.3907 20.3907C11.5313 20.8595 11.6719 21.0001 12.0001 21.0001C12.3282 21.0001 12.5157 20.7657 12.6094 20.3907C12.7969 19.7274 13.0481 19.0838 13.3594 18.4688C13.9805 17.4284 14.686 16.4407 15.4688 15.5157C15.7032 15.2345 16.9688 13.6876 17.5782 12.5157C17.5782 12.5157 18.2813 11.1563 18.2813 9.32821C18.2813 7.59384 17.5782 6.37509 17.5782 6.37509Z" fill="white"/>
</mask>
<g mask="url(#mask0_443_45)">
<path d="M4.875 17.7656L12 9.28125L4.875 17.7656Z" fill="black"/>
<path d="M4.875 17.7656L12 9.28125" stroke="#FBBC04" stroke-width="130"/>
<path d="M12 9.28125L17.7188 2.48438L12 9.28125Z" fill="black"/>
<path d="M12 9.28125L17.7188 2.48438" stroke="#4285F4" stroke-width="130"/>
<path d="M8.85938 21.5156L20.25 7.92188L8.85938 21.5156Z" fill="black"/>
<path d="M8.85938 21.5156L20.25 7.92188" stroke="#34A853" stroke-width="130"/>
<path d="M11.9531 5.625L8.25 2.48438L11.9531 5.625Z" fill="black"/>
<path d="M11.9531 5.625L8.25 2.48438" stroke="#1A73E8" stroke-width="130"/>
<path d="M3.5625 10.875L7.82812 5.76562L3.5625 10.875Z" fill="black"/>
<path d="M3.5625 10.875L7.82812 5.76562" stroke="#EA4335" stroke-width="130"/>
</g>
<path d="M12 11.6719C13.3203 11.6719 14.3906 10.6016 14.3906 9.28125C14.3906 7.96094 13.3203 6.89062 12 6.89062C10.6797 6.89062 9.60938 7.96094 9.60938 9.28125C9.60938 10.6016 10.6797 11.6719 12 11.6719Z" fill="white"/>
</g>
<defs>
<clipPath id="clip0_443_45">
<rect width="24" height="24" fill="white"/>
</clipPath>
</defs>
</svg>
